<svg width="23" height="17" viewBox="0 0 23 17" fill="none" xmlns="http://www.w3.org/2000/svg">
<path d="M1.5 13.5V3.5C1.5 2.96957 1.71071 2.46086 2.08579 2.08579C2.46086 1.71071 2.96957 1.5 3.5 1.5H19.5C20.0304 1.5 20.5391 1.71071 20.9142 2.08579C21.2893 2.46086 21.5 2.96957 21.5 3.5V13.5C21.5 14.0304 21.2893 14.5391 20.9142 14.9142C20.5391 15.2893 20.0304 15.5 19.5 15.5H3.5C2.96957 15.5 2.46086 15.2893 2.08579 14.9142C1.71071 14.5391 1.5 14.0304 1.5 13.5Z" stroke="black" stroke-width="1.5" stroke-linecap="round" stroke-linejoin="round"/>
<path d="M18 8.51L18.01 8.499M5 8.51L5.01 8.499M11.5 11.5C10.7044 11.5 9.94129 11.1839 9.37868 10.6213C8.81607 10.0587 8.5 9.29565 8.5 8.5C8.5 7.70435 8.81607 6.94129 9.37868 6.37868C9.94129 5.81607 10.7044 5.5 11.5 5.5C12.2956 5.5 13.0587 5.81607 13.6213 6.37868C14.1839 6.94129 14.5 7.70435 14.5 8.5C14.5 9.29565 14.1839 10.0587 13.6213 10.6213C13.0587 11.1839 12.2956 11.5 11.5 11.5Z" stroke="black" stroke-width="1.5" stroke-linecap="round" stroke-linejoin="round"/>
</svg>
