<svg width="23" height="19" viewBox="0 0 23 19" fill="none" xmlns="http://www.w3.org/2000/svg">
<path d="M21.5 9.5C21.5 5.729 21.5 3.843 20.328 2.672C19.156 1.501 17.271 1.5 13.5 1.5H9.5C5.729 1.5 3.843 1.5 2.672 2.672C1.501 3.844 1.5 5.729 1.5 9.5C1.5 13.271 1.5 15.157 2.672 16.328C3.844 17.499 5.729 17.5 9.5 17.5H13.5C17.271 17.5 19.157 17.5 20.328 16.328C20.982 15.675 21.271 14.8 21.398 13.5M9.5 13.5H5.5M13.5 13.5H12M1.5 7.5H6.5M21.5 7.5H10.5" stroke="black" stroke-width="1.5" stroke-linecap="round"/>
</svg>
