<svg width="25" height="25" viewBox="0 0 25 25" fill="none" xmlns="http://www.w3.org/2000/svg">
<path d="M12.5 17.5C12.5 20.2614 14.7386 22.5 17.5 22.5C20.2614 22.5 22.5 20.2614 22.5 17.5C22.5 14.7386 20.2614 12.5 17.5 12.5C14.7386 12.5 12.5 14.7386 12.5 17.5ZM12.5 17.5C12.5 16.3742 12.8721 15.3353 13.5 14.4995V5.5M12.5 17.5C12.5 18.3254 12.7 19.104 13.0541 19.7901C12.2117 20.5018 10.2658 21 8 21C4.96243 21 2.5 20.1046 2.5 19V5.5M13.5 5.5C13.5 6.60457 11.0376 7.5 8 7.5C4.96243 7.5 2.5 6.60457 2.5 5.5M13.5 5.5C13.5 4.39543 11.0376 3.5 8 3.5C4.96243 3.5 2.5 4.39543 2.5 5.5M2.5 14.5C2.5 15.6046 4.96243 16.5 8 16.5C10.189 16.5 12.0793 16.035 12.9646 15.3618M13.5 10C13.5 11.1046 11.0376 12 8 12C4.96243 12 2.5 11.1046 2.5 10" stroke="black" stroke-width="1.5" stroke-linecap="round" stroke-linejoin="round"/>
</svg>
