<svg width="160" height="32" viewBox="0 0 160 32" fill="none" xmlns="http://www.w3.org/2000/svg">
<path d="M0 5.07573V0.424072H23.2583V5.07573H0Z" fill="#F15350"/>
<path d="M0 18.1849V13.1104H21.1439V18.1849H0Z" fill="#F15350"/>
<path d="M0 30.8713V26.6425H23.2583V30.8713H0Z" fill="#F15350"/>
<path d="M136.166 4.65166V0H159.424V4.65166H136.166Z" fill="#F15350"/>
<path d="M136.166 17.7609V12.6863H157.31V17.7609H136.166Z" fill="#F15350"/>
<path d="M136.166 30.4472V26.2184H159.424V30.4472H136.166Z" fill="#F15350"/>
<path d="M40.1734 0.424072H35.0989V30.8713H56.6656V25.7967H40.1734V0.424072Z" fill="#F15350"/>
<path d="M72.3121 0.424072H66.8147V19.0307C66.8147 26.6425 72.2822 30.1529 77.8095 31.2942V26.6425C75.2158 25.4144 72.3121 23.6824 72.3121 19.4536V0.424072Z" fill="#F15350"/>
<path d="M87.5353 0.84668H93.0327V19.4533C93.0327 27.0651 87.5652 30.5755 82.0379 31.7168V27.0651C84.6316 25.837 87.5353 24.105 87.5353 19.8762V0.84668Z" fill="#F15350"/>
<path d="M101.914 4.65285V0.424072H111.64C129.824 0.424072 130.669 30.8713 111.64 30.8713H101.914V26.2196H110.371C123.057 26.2196 122.635 4.65285 110.371 4.65285H101.914Z" fill="#F15350"/>
</svg>
