<svg width="160" height="32" viewBox="0 0 160 32" fill="none" xmlns="http://www.w3.org/2000/svg">
<path d="M0 5.07585V0.424194H23.2583V5.07585H0Z" fill="white"/>
<path d="M0 18.1851V13.1105H21.1439V18.1851H0Z" fill="white"/>
<path d="M0 30.8714V26.6426H23.2583V30.8714H0Z" fill="white"/>
<path d="M136.166 4.65166V0H159.424V4.65166H136.166Z" fill="white"/>
<path d="M136.166 17.7609V12.6863H157.31V17.7609H136.166Z" fill="white"/>
<path d="M136.166 30.4472V26.2184H159.424V30.4472H136.166Z" fill="white"/>
<path d="M40.1734 0.424194H35.0989V30.8714H56.6656V25.7969H40.1734V0.424194Z" fill="white"/>
<path d="M72.3121 0.424194H66.8147V19.0308C66.8147 26.6426 72.2822 30.153 77.8095 31.2943V26.6426C75.2158 25.4145 72.3121 23.6825 72.3121 19.4537V0.424194Z" fill="white"/>
<path d="M87.5353 0.846619H93.0327V19.4532C93.0327 27.065 87.5652 30.5754 82.0379 31.7167V27.065C84.6316 25.8369 87.5353 24.1049 87.5353 19.8761V0.846619Z" fill="white"/>
<path d="M101.914 4.65297V0.424194H111.64C129.824 0.424194 130.669 30.8714 111.64 30.8714H101.914V26.2197H110.371C123.057 26.2197 122.635 4.65297 110.371 4.65297H101.914Z" fill="white"/>
</svg>
