<svg width="60" height="58" viewBox="0 0 60 58" fill="none" xmlns="http://www.w3.org/2000/svg">
<rect x="6" y="4" width="48" height="48" rx="24" fill="white"/>
<path d="M39.9636 22.7743L38.535 18.4886C38.4378 18.1967 38.1647 17.9999 37.8572 18H22.1429C21.8353 17.9999 21.5622 18.1967 21.465 18.4886L20.0364 22.7743C20.0144 22.841 20.0021 22.9105 20 22.9807C20 22.9879 20 22.9929 20 23V23.7143C20.0026 24.8334 20.5318 25.8861 21.4286 26.5557C21.4286 26.5615 21.4286 26.5657 21.4286 26.5714V35.8571C21.4286 37.0406 22.388 38 23.5714 38H36.4286C37.612 38 38.5714 37.0406 38.5714 35.8571V26.5714C38.5714 26.5657 38.5714 26.5614 38.5714 26.5557C39.4681 25.8861 39.9974 24.8334 40 23.7143V23C40 22.9929 40 22.9879 40 22.9807C39.9979 22.9105 39.9856 22.841 39.9636 22.7743ZM22.7 19.4286H37.3422L38.295 22.2857H21.7L22.7 19.4286ZM31.4286 36.5714H28.5714V30.8571H31.4286V36.5714ZM37.1429 35.8571C37.1429 36.2516 36.8231 36.5714 36.4286 36.5714H32.8571V30.1429C32.8571 29.7484 32.5373 29.4286 32.1428 29.4286H27.8571C27.4626 29.4286 27.1428 29.7484 27.1428 30.1429V36.5714H23.5714C23.1769 36.5714 22.8571 36.2516 22.8571 35.8571V27.2143C23.8595 27.4201 24.9019 27.1808 25.7143 26.5586C26.9894 27.4951 28.7249 27.4951 30 26.5586C31.2751 27.4951 33.0106 27.4951 34.2857 26.5586C35.0981 27.1809 36.1404 27.4201 37.1429 27.2143V35.8571ZM36.4286 25.8571C35.8109 25.8567 35.2243 25.5858 34.8235 25.1157C34.564 24.8187 34.1127 24.7883 33.8157 25.0479C33.7916 25.0689 33.7689 25.0916 33.7479 25.1157C32.9536 26.0021 31.5912 26.0769 30.7048 25.2827C30.6462 25.2301 30.5904 25.1744 30.5378 25.1157C30.2583 24.8187 29.7909 24.8044 29.4938 25.084C29.4829 25.0943 29.4724 25.1048 29.4621 25.1157C28.6679 26.0021 27.3055 26.0769 26.4191 25.2827C26.3604 25.2301 26.3047 25.1744 26.2521 25.1157C25.9726 24.8187 25.5051 24.8044 25.2081 25.084C25.1972 25.0943 25.1866 25.1048 25.1764 25.1157C24.7757 25.5858 24.1892 25.8567 23.5714 25.8571C22.388 25.8571 21.4286 24.8977 21.4286 23.7143H38.5714C38.5714 24.8977 37.612 25.8571 36.4286 25.8571Z" fill="#F15350"/>
</svg>
