<svg width="35" height="31" viewBox="0 0 35 31" fill="none" xmlns="http://www.w3.org/2000/svg">
<rect x="0.75" y="0.75" width="33.5" height="29.5" rx="5.25" stroke="#0AC511" stroke-width="1.5"/>
<path fill-rule="evenodd" clip-rule="evenodd" d="M9.37868 7.37868C8.5 8.25736 8.5 9.67157 8.5 12.5V18.5C8.5 21.3284 8.5 22.7426 9.37868 23.6213C10.0205 24.2632 10.9482 24.4362 12.5041 24.4828C12.5 24.187 12.5 23.8607 12.5 23.5V22.5C12.5 20.6144 12.5 19.6716 13.0858 19.0858C13.6716 18.5 14.6144 18.5 16.5 18.5H17.5C19.3856 18.5 20.3284 18.5 20.9142 19.0858C21.5 19.6716 21.5 20.6144 21.5 22.5V23.5C21.5 23.867 21.5 24.1984 21.4957 24.4983C23.6735 24.4863 24.8524 24.3902 25.6213 23.6213C26.5 22.7426 26.5 21.3284 26.5 18.5V11.3284C26.5 10.9197 26.5 10.7153 26.4239 10.5315C26.3478 10.3478 26.2032 10.2032 25.9142 9.91423L25.9142 9.91421L23.0858 7.08579C22.7968 6.79676 22.6522 6.65224 22.4685 6.57612C22.2847 6.5 22.0803 6.5 21.6716 6.5H14.5C11.6716 6.5 10.2574 6.5 9.37868 7.37868Z" fill="#0AC511"/>
<path d="M21.5 24.5V22.5C21.5 20.6144 21.5 19.6716 20.9142 19.0858C20.3284 18.5 19.3856 18.5 17.5 18.5H16.5C14.6144 18.5 13.6716 18.5 13.0858 19.0858C12.5 19.6716 12.5 20.6144 12.5 22.5V24.5" stroke="#0AC511" stroke-width="1.2"/>
<path d="M12.5 11.5H17.5" stroke="#0AC511" stroke-width="1.2" stroke-linecap="round"/>
<path d="M8.5 12.5C8.5 9.67157 8.5 8.25736 9.37868 7.37868C10.2574 6.5 11.6716 6.5 14.5 6.5H21.6716C22.0803 6.5 22.2847 6.5 22.4685 6.57612C22.6522 6.65224 22.7968 6.79676 23.0858 7.08579L25.9142 9.91421C26.2032 10.2032 26.3478 10.3478 26.4239 10.5315C26.5 10.7153 26.5 10.9197 26.5 11.3284V18.5C26.5 21.3284 26.5 22.7426 25.6213 23.6213C24.7426 24.5 23.3284 24.5 20.5 24.5H14.5C11.6716 24.5 10.2574 24.5 9.37868 23.6213C8.5 22.7426 8.5 21.3284 8.5 18.5V12.5Z" stroke="#0AC511" stroke-width="1.2"/>
</svg>
